<mxfile host="app.diagrams.net" modified="2024-05-19T12:14:03.683Z" agent="Mozilla/5.0 (X11; CrOS x86_64 14541.0.0) AppleWebKit/537.36 (KHTML, like Gecko) Chrome/114.0.0.0 Safari/537.36" version="24.4.4" etag="hlxWrA4sjrDRp3iPKjN5" type="github">
  <diagram name="Page-1" id="DBcew0J0vYr34xlc-EqU">
    <mxGraphModel>
      <root>
        <mxCell id="0" />
        <mxCell id="1" parent="0" />
      </root>
    </mxGraphModel>
  </diagram>
</mxfile>
